{
    "asset" : {
        "generator" : "Khronos glTF Blender I/O v1.6.16",
        "version" : "2.0"
    },
    "scene" : 0,
    "scenes" : [
        {
            "name" : "Scene",
            "nodes" : [
                0,
                1,
                2,
                3,
                4,
                5
            ]
        }
    ],
    "nodes" : [
        {
            "mesh" : 0,
            "name" : "Mesh.005",
            "rotation" : [
                0.3100474774837494,
                -0.635508120059967,
                0.6355080604553223,
                0.3100475072860718
            ],
            "translation" : [
                -1.0461987257003784,
                4.775813102722168,
                -7.751765251159668
            ]
        },
        {
            "mesh" : 1,
            "name" : "Mesh.004",
            "rotation" : [
                0.3100474774837494,
                -0.635508120059967,
                0.6355080604553223,
                0.3100475072860718
            ],
            "translation" : [
                -1.0461987257003784,
                4.775813102722168,
                -7.751765251159668
            ]
        },
        {
            "mesh" : 2,
            "name" : "Mesh.003",
            "rotation" : [
                0.3100474774837494,
                -0.635508120059967,
                0.6355080604553223,
                0.3100475072860718
            ],
            "translation" : [
                -1.0461987257003784,
                4.775813102722168,
                -7.751765251159668
            ]
        },
        {
            "mesh" : 3,
            "name" : "Mesh.002",
            "rotation" : [
                0.3100474774837494,
                -0.635508120059967,
                0.6355080604553223,
                0.3100475072860718
            ],
            "translation" : [
                -1.0461987257003784,
                4.775813102722168,
                -7.751765251159668
            ]
        },
        {
            "mesh" : 4,
            "name" : "Mesh.001",
            "rotation" : [
                0.3100474774837494,
                -0.635508120059967,
                0.6355080604553223,
                0.3100475072860718
            ],
            "translation" : [
                -1.0461987257003784,
                4.775813102722168,
                -7.751765251159668
            ]
        },
        {
            "mesh" : 5,
            "name" : "Mesh",
            "rotation" : [
                0.3100474774837494,
                -0.635508120059967,
                0.6355080604553223,
                0.3100475072860718
            ],
            "translation" : [
                -1.0461987257003784,
                4.775813102722168,
                -7.751765251159668
            ]
        }
    ],
    "materials" : [
        {
            "doubleSided" : true,
            "name" : "Marble",
            "pbrMetallicRoughness" : {
                "baseColorTexture" : {
                    "index" : 0
                },
                "metallicFactor" : 0,
                "roughnessFactor" : 0.5
            }
        },
        {
            "doubleSided" : true,
            "name" : "Frame",
            "pbrMetallicRoughness" : {
                "baseColorTexture" : {
                    "index" : 1
                },
                "metallicFactor" : 0,
                "roughnessFactor" : 0.5
            }
        },
        {
            "doubleSided" : true,
            "name" : "Flag",
            "pbrMetallicRoughness" : {
                "baseColorTexture" : {
                    "index" : 2
                },
                "metallicFactor" : 0,
                "roughnessFactor" : 0.5
            }
        },
        {
            "doubleSided" : true,
            "name" : "MainBone",
            "pbrMetallicRoughness" : {
                "baseColorTexture" : {
                    "index" : 3
                },
                "metallicFactor" : 0,
                "roughnessFactor" : 0.5
            }
        }
    ],
    "meshes" : [
        {
            "name" : "sails.002_Plane.019",
            "primitives" : [
                {
                    "attributes" : {
                        "POSITION" : 0,
                        "NORMAL" : 1,
                        "TEXCOORD_0" : 2
                    },
                    "indices" : 3,
                    "material" : 0
                }
            ]
        },
        {
            "name" : "masts.000_Cylinder.00",
            "primitives" : [
                {
                    "attributes" : {
                        "POSITION" : 4,
                        "NORMAL" : 5,
                        "TEXCOORD_0" : 6,
                        "COLOR_0" : 7
                    },
                    "indices" : 8,
                    "material" : 1
                }
            ]
        },
        {
            "name" : "Mesh.022_Plane.015",
            "primitives" : [
                {
                    "attributes" : {
                        "POSITION" : 9,
                        "NORMAL" : 10,
                        "TEXCOORD_0" : 11
                    },
                    "indices" : 12,
                    "material" : 2
                }
            ]
        },
        {
            "name" : "Mesh.023_Cube.009",
            "primitives" : [
                {
                    "attributes" : {
                        "POSITION" : 13,
                        "NORMAL" : 14,
                        "TEXCOORD_0" : 15,
                        "COLOR_0" : 16
                    },
                    "indices" : 17,
                    "material" : 3
                }
            ]
        },
        {
            "name" : "Mesh.021_Plane.017",
            "primitives" : [
                {
                    "attributes" : {
                        "POSITION" : 18,
                        "NORMAL" : 19,
                        "TEXCOORD_0" : 20
                    },
                    "indices" : 21,
                    "material" : 3
                }
            ]
        },
        {
            "name" : "Mesh.020_BezierCurve.",
            "primitives" : [
                {
                    "attributes" : {
                        "POSITION" : 22,
                        "NORMAL" : 23,
                        "TEXCOORD_0" : 24
                    },
                    "indices" : 25,
                    "material" : 1
                }
            ]
        }
    ],
    "textures" : [
        {
            "sampler" : 0,
            "source" : 0
        },
        {
            "sampler" : 0,
            "source" : 1
        },
        {
            "sampler" : 0,
            "source" : 2
        },
        {
            "sampler" : 0,
            "source" : 3
        }
    ],
    "images" : [
        {
            "mimeType" : "image/jpeg",
            "name" : "Marble",
            "uri" : "Marble.jpg"
        },
        {
            "mimeType" : "image/jpeg",
            "name" : "Wood",
            "uri" : "Wood.jpg"
        },
        {
            "mimeType" : "image/png",
            "name" : "Flag",
            "uri" : "Flag.png"
        },
        {
            "mimeType" : "image/png",
            "name" : "MainBone",
            "uri" : "MainBone.png"
        }
    ],
    "accessors" : [
        {
            "bufferView" : 0,
            "componentType" : 5126,
            "count" : 147,
            "max" : [
                18.831039428710938,
                15.92798137664795,
                -4.3860321044921875
            ],
            "min" : [
                -20.219881057739258,
                -18.67658805847168,
                -32.12100601196289
            ],
            "type" : "VEC3"
        },
        {
            "bufferView" : 1,
            "componentType" : 5126,
            "count" : 147,
            "type" : "VEC3"
        },
        {
            "bufferView" : 2,
            "componentType" : 5126,
            "count" : 147,
            "type" : "VEC2"
        },
        {
            "bufferView" : 3,
            "componentType" : 5123,
            "count" : 273,
            "type" : "SCALAR"
        },
        {
            "bufferView" : 4,
            "componentType" : 5126,
            "count" : 719,
            "max" : [
                18.803783416748047,
                16.035932540893555,
                1.9942200183868408
            ],
            "min" : [
                -20.403993606567383,
                -18.80105972290039,
                -38.01898193359375
            ],
            "type" : "VEC3"
        },
        {
            "bufferView" : 5,
            "componentType" : 5126,
            "count" : 719,
            "type" : "VEC3"
        },
        {
            "bufferView" : 6,
            "componentType" : 5126,
            "count" : 719,
            "type" : "VEC2"
        },
        {
            "bufferView" : 7,
            "componentType" : 5123,
            "count" : 719,
            "normalized" : true,
            "type" : "VEC4"
        },
        {
            "bufferView" : 8,
            "componentType" : 5123,
            "count" : 1152,
            "type" : "SCALAR"
        },
        {
            "bufferView" : 9,
            "componentType" : 5126,
            "count" : 11,
            "max" : [
                8.77241325378418,
                -2.483604907989502,
                -32.38251876831055
            ],
            "min" : [
                5.415352821350098,
                -5.57883882522583,
                -37.76856231689453
            ],
            "type" : "VEC3"
        },
        {
            "bufferView" : 10,
            "componentType" : 5126,
            "count" : 11,
            "type" : "VEC3"
        },
        {
            "bufferView" : 11,
            "componentType" : 5126,
            "count" : 11,
            "type" : "VEC2"
        },
        {
            "bufferView" : 12,
            "componentType" : 5123,
            "count" : 15,
            "type" : "SCALAR"
        },
        {
            "bufferView" : 13,
            "componentType" : 5126,
            "count" : 226,
            "max" : [
                20.083066940307617,
                9.828365325927734,
                4.956225872039795
            ],
            "min" : [
                -14.189017295837402,
                -17.10091781616211,
                -4.24364709854126
            ],
            "type" : "VEC3"
        },
        {
            "bufferView" : 14,
            "componentType" : 5126,
            "count" : 226,
            "type" : "VEC3"
        },
        {
            "bufferView" : 15,
            "componentType" : 5126,
            "count" : 226,
            "type" : "VEC2"
        },
        {
            "bufferView" : 16,
            "componentType" : 5123,
            "count" : 226,
            "normalized" : true,
            "type" : "VEC4"
        },
        {
            "bufferView" : 17,
            "componentType" : 5123,
            "count" : 336,
            "type" : "SCALAR"
        },
        {
            "bufferView" : 18,
            "componentType" : 5126,
            "count" : 248,
            "max" : [
                20.768911361694336,
                9.502602577209473,
                -3.022665023803711
            ],
            "min" : [
                -12.127243995666504,
                -18.806344985961914,
                -3.9576220512390137
            ],
            "type" : "VEC3"
        },
        {
            "bufferView" : 19,
            "componentType" : 5126,
            "count" : 248,
            "type" : "VEC3"
        },
        {
            "bufferView" : 20,
            "componentType" : 5126,
            "count" : 248,
            "type" : "VEC2"
        },
        {
            "bufferView" : 21,
            "componentType" : 5123,
            "count" : 360,
            "type" : "SCALAR"
        },
        {
            "bufferView" : 22,
            "componentType" : 5126,
            "count" : 774,
            "max" : [
                22.288087844848633,
                9.650032997131348,
                4.437439918518066
            ],
            "min" : [
                -12.38504695892334,
                -19.630653381347656,
                -8.211324691772461
            ],
            "type" : "VEC3"
        },
        {
            "bufferView" : 23,
            "componentType" : 5126,
            "count" : 774,
            "type" : "VEC3"
        },
        {
            "bufferView" : 24,
            "componentType" : 5126,
            "count" : 774,
            "type" : "VEC2"
        },
        {
            "bufferView" : 25,
            "componentType" : 5123,
            "count" : 1764,
            "type" : "SCALAR"
        }
    ],
    "bufferViews" : [
        {
            "buffer" : 0,
            "byteLength" : 1764,
            "byteOffset" : 0
        },
        {
            "buffer" : 0,
            "byteLength" : 1764,
            "byteOffset" : 1764
        },
        {
            "buffer" : 0,
            "byteLength" : 1176,
            "byteOffset" : 3528
        },
        {
            "buffer" : 0,
            "byteLength" : 546,
            "byteOffset" : 4704
        },
        {
            "buffer" : 0,
            "byteLength" : 8628,
            "byteOffset" : 5252
        },
        {
            "buffer" : 0,
            "byteLength" : 8628,
            "byteOffset" : 13880
        },
        {
            "buffer" : 0,
            "byteLength" : 5752,
            "byteOffset" : 22508
        },
        {
            "buffer" : 0,
            "byteLength" : 5752,
            "byteOffset" : 28260
        },
        {
            "buffer" : 0,
            "byteLength" : 2304,
            "byteOffset" : 34012
        },
        {
            "buffer" : 0,
            "byteLength" : 132,
            "byteOffset" : 36316
        },
        {
            "buffer" : 0,
            "byteLength" : 132,
            "byteOffset" : 36448
        },
        {
            "buffer" : 0,
            "byteLength" : 88,
            "byteOffset" : 36580
        },
        {
            "buffer" : 0,
            "byteLength" : 30,
            "byteOffset" : 36668
        },
        {
            "buffer" : 0,
            "byteLength" : 2712,
            "byteOffset" : 36700
        },
        {
            "buffer" : 0,
            "byteLength" : 2712,
            "byteOffset" : 39412
        },
        {
            "buffer" : 0,
            "byteLength" : 1808,
            "byteOffset" : 42124
        },
        {
            "buffer" : 0,
            "byteLength" : 1808,
            "byteOffset" : 43932
        },
        {
            "buffer" : 0,
            "byteLength" : 672,
            "byteOffset" : 45740
        },
        {
            "buffer" : 0,
            "byteLength" : 2976,
            "byteOffset" : 46412
        },
        {
            "buffer" : 0,
            "byteLength" : 2976,
            "byteOffset" : 49388
        },
        {
            "buffer" : 0,
            "byteLength" : 1984,
            "byteOffset" : 52364
        },
        {
            "buffer" : 0,
            "byteLength" : 720,
            "byteOffset" : 54348
        },
        {
            "buffer" : 0,
            "byteLength" : 9288,
            "byteOffset" : 55068
        },
        {
            "buffer" : 0,
            "byteLength" : 9288,
            "byteOffset" : 64356
        },
        {
            "buffer" : 0,
            "byteLength" : 6192,
            "byteOffset" : 73644
        },
        {
            "buffer" : 0,
            "byteLength" : 3528,
            "byteOffset" : 79836
        }
    ],
    "samplers" : [
        {
            "magFilter" : 9729,
            "minFilter" : 9987
        }
    ],
    "buffers" : [
        {
            "byteLength" : 83364,
            "uri" : "Ship.bin"
        }
    ]
}
