{
    "asset" : {
        "generator" : "Khronos glTF Blender I/O v1.6.16",
        "version" : "2.0"
    },
    "scene" : 0,
    "scenes" : [
        {
            "name" : "Scene",
            "nodes" : [
                0
            ]
        }
    ],
    "nodes" : [
        {
            "mesh" : 0,
            "name" : "StageMap.001",
            "rotation" : [
                0.5,
                0.5000000596046448,
                -0.5,
                0.4999999403953552
            ],
            "translation" : [
                -30,
                -8.061531843850389e-06,
                60.00000762939453
            ]
        }
    ],
    "materials" : [
        {
            "doubleSided" : true,
            "name" : "Material.008_COLOR_0",
            "normalTexture" : {
                "index" : 0
            },
            "pbrMetallicRoughness" : {
                "baseColorTexture" : {
                    "index" : 1
                },
                "metallicFactor" : 0,
                "roughnessFactor" : 0
            }
        },
        {
            "doubleSided" : true,
            "name" : "Material.009_COLOR_0",
            "normalTexture" : {
                "index" : 2
            },
            "pbrMetallicRoughness" : {
                "baseColorTexture" : {
                    "index" : 3
                },
                "metallicFactor" : 0
            }
        }
    ],
    "meshes" : [
        {
            "name" : "obj1.004",
            "primitives" : [
                {
                    "attributes" : {
                        "POSITION" : 0,
                        "NORMAL" : 1,
                        "TANGENT" : 2,
                        "TEXCOORD_0" : 3,
                        "COLOR_0" : 4
                    },
                    "indices" : 5,
                    "material" : 0
                },
                {
                    "attributes" : {
                        "POSITION" : 6,
                        "NORMAL" : 7,
                        "TANGENT" : 8,
                        "TEXCOORD_0" : 9,
                        "COLOR_0" : 10
                    },
                    "indices" : 11,
                    "material" : 1
                }
            ]
        }
    ],
    "textures" : [
        {
            "sampler" : 0,
            "source" : 0
        },
        {
            "sampler" : 0,
            "source" : 1
        },
        {
            "sampler" : 0,
            "source" : 2
        },
        {
            "sampler" : 0,
            "source" : 3
        }
    ],
    "images" : [
        {
            "mimeType" : "image/png",
            "name" : "grs_normal",
            "uri" : "grs_normal.png"
        },
        {
            "mimeType" : "image/png",
            "name" : "grs",
            "uri" : "grs.png"
        },
        {
            "mimeType" : "image/png",
            "name" : "stone_normal",
            "uri" : "stone_normal.png"
        },
        {
            "mimeType" : "image/png",
            "name" : "stone",
            "uri" : "stone.png"
        }
    ],
    "accessors" : [
        {
            "bufferView" : 0,
            "componentType" : 5126,
            "count" : 41007,
            "max" : [
                120.00001525878906,
                90,
                0.28823161125183105
            ],
            "min" : [
                0,
                -30.00000762939453,
                -12.057140350341797
            ],
            "type" : "VEC3"
        },
        {
            "bufferView" : 1,
            "componentType" : 5126,
            "count" : 41007,
            "type" : "VEC3"
        },
        {
            "bufferView" : 2,
            "componentType" : 5126,
            "count" : 41007,
            "type" : "VEC4"
        },
        {
            "bufferView" : 3,
            "componentType" : 5126,
            "count" : 41007,
            "type" : "VEC2"
        },
        {
            "bufferView" : 4,
            "componentType" : 5123,
            "count" : 41007,
            "normalized" : true,
            "type" : "VEC4"
        },
        {
            "bufferView" : 5,
            "componentType" : 5123,
            "count" : 59004,
            "type" : "SCALAR"
        },
        {
            "bufferView" : 6,
            "componentType" : 5126,
            "count" : 868,
            "max" : [
                88.79997253417969,
                58.79996871948242,
                2.384185791015625e-06
            ],
            "min" : [
                21.599979400634766,
                10.799989700317383,
                -3.495972156524658
            ],
            "type" : "VEC3"
        },
        {
            "bufferView" : 7,
            "componentType" : 5126,
            "count" : 868,
            "type" : "VEC3"
        },
        {
            "bufferView" : 8,
            "componentType" : 5126,
            "count" : 868,
            "type" : "VEC4"
        },
        {
            "bufferView" : 9,
            "componentType" : 5126,
            "count" : 868,
            "type" : "VEC2"
        },
        {
            "bufferView" : 10,
            "componentType" : 5123,
            "count" : 868,
            "normalized" : true,
            "type" : "VEC4"
        },
        {
            "bufferView" : 11,
            "componentType" : 5123,
            "count" : 996,
            "type" : "SCALAR"
        }
    ],
    "bufferViews" : [
        {
            "buffer" : 0,
            "byteLength" : 492084,
            "byteOffset" : 0
        },
        {
            "buffer" : 0,
            "byteLength" : 492084,
            "byteOffset" : 492084
        },
        {
            "buffer" : 0,
            "byteLength" : 656112,
            "byteOffset" : 984168
        },
        {
            "buffer" : 0,
            "byteLength" : 328056,
            "byteOffset" : 1640280
        },
        {
            "buffer" : 0,
            "byteLength" : 328056,
            "byteOffset" : 1968336
        },
        {
            "buffer" : 0,
            "byteLength" : 118008,
            "byteOffset" : 2296392
        },
        {
            "buffer" : 0,
            "byteLength" : 10416,
            "byteOffset" : 2414400
        },
        {
            "buffer" : 0,
            "byteLength" : 10416,
            "byteOffset" : 2424816
        },
        {
            "buffer" : 0,
            "byteLength" : 13888,
            "byteOffset" : 2435232
        },
        {
            "buffer" : 0,
            "byteLength" : 6944,
            "byteOffset" : 2449120
        },
        {
            "buffer" : 0,
            "byteLength" : 6944,
            "byteOffset" : 2456064
        },
        {
            "buffer" : 0,
            "byteLength" : 1992,
            "byteOffset" : 2463008
        }
    ],
    "samplers" : [
        {
            "magFilter" : 9729,
            "minFilter" : 9987
        }
    ],
    "buffers" : [
        {
            "byteLength" : 2465000,
            "uri" : "StageMap.bin"
        }
    ]
}
