{
    "asset" : {
        "generator" : "Khronos glTF Blender I/O v1.6.16",
        "version" : "2.0"
    },
    "scene" : 0,
    "scenes" : [
        {
            "name" : "Scene",
            "nodes" : [
                0
            ]
        }
    ],
    "nodes" : [
        {
            "mesh" : 0,
            "name" : "StageMap"
        }
    ],
    "materials" : [
        {
            "doubleSided" : true,
            "name" : "grass",
            "normalTexture" : {
                "index" : 0
            },
            "pbrMetallicRoughness" : {
                "baseColorTexture" : {
                    "index" : 1
                },
                "metallicFactor" : 0
            }
        },
        {
            "doubleSided" : true,
            "name" : "stone",
            "normalTexture" : {
                "index" : 2
            },
            "pbrMetallicRoughness" : {
                "baseColorTexture" : {
                    "index" : 3
                },
                "metallicFactor" : 0
            }
        }
    ],
    "meshes" : [
        {
            "name" : "obj1",
            "primitives" : [
                {
                    "attributes" : {
                        "POSITION" : 0,
                        "NORMAL" : 1,
                        "TANGENT" : 2,
                        "TEXCOORD_0" : 3,
                        "COLOR_0" : 4
                    },
                    "indices" : 5,
                    "material" : 0
                },
                {
                    "attributes" : {
                        "POSITION" : 6,
                        "NORMAL" : 7,
                        "TANGENT" : 8,
                        "TEXCOORD_0" : 9,
                        "COLOR_0" : 10
                    },
                    "indices" : 11,
                    "material" : 1
                }
            ]
        }
    ],
    "textures" : [
        {
            "sampler" : 0,
            "source" : 0
        },
        {
            "sampler" : 0,
            "source" : 1
        },
        {
            "sampler" : 0,
            "source" : 2
        },
        {
            "sampler" : 0,
            "source" : 3
        }
    ],
    "images" : [
        {
            "mimeType" : "image/png",
            "name" : "grs_normal",
            "uri" : "grs_normal.png"
        },
        {
            "mimeType" : "image/png",
            "name" : "grs",
            "uri" : "grs.png"
        },
        {
            "mimeType" : "image/png",
            "name" : "stone_normal",
            "uri" : "stone_normal.png"
        },
        {
            "mimeType" : "image/png",
            "name" : "stone",
            "uri" : "stone.png"
        }
    ],
    "accessors" : [
        {
            "bufferView" : 0,
            "componentType" : 5126,
            "count" : 8944,
            "max" : [
                29.999971389770508,
                4.160206317901611,
                29.999971389770508
            ],
            "min" : [
                -29.999971389770508,
                -1.2048132419586182,
                -29.999971389770508
            ],
            "type" : "VEC3"
        },
        {
            "bufferView" : 1,
            "componentType" : 5126,
            "count" : 8944,
            "type" : "VEC3"
        },
        {
            "bufferView" : 2,
            "componentType" : 5126,
            "count" : 8944,
            "type" : "VEC4"
        },
        {
            "bufferView" : 3,
            "componentType" : 5126,
            "count" : 8944,
            "type" : "VEC2"
        },
        {
            "bufferView" : 4,
            "componentType" : 5123,
            "count" : 8944,
            "normalized" : true,
            "type" : "VEC4"
        },
        {
            "bufferView" : 5,
            "componentType" : 5123,
            "count" : 13416,
            "type" : "SCALAR"
        },
        {
            "bufferView" : 6,
            "componentType" : 5126,
            "count" : 1056,
            "max" : [
                29.999971389770508,
                3.7477684020996094,
                19.199981689453125
            ],
            "min" : [
                -29.999971389770508,
                -0.8501142263412476,
                -28.799972534179688
            ],
            "type" : "VEC3"
        },
        {
            "bufferView" : 7,
            "componentType" : 5126,
            "count" : 1056,
            "type" : "VEC3"
        },
        {
            "bufferView" : 8,
            "componentType" : 5126,
            "count" : 1056,
            "type" : "VEC4"
        },
        {
            "bufferView" : 9,
            "componentType" : 5126,
            "count" : 1056,
            "type" : "VEC2"
        },
        {
            "bufferView" : 10,
            "componentType" : 5123,
            "count" : 1056,
            "normalized" : true,
            "type" : "VEC4"
        },
        {
            "bufferView" : 11,
            "componentType" : 5123,
            "count" : 1584,
            "type" : "SCALAR"
        }
    ],
    "bufferViews" : [
        {
            "buffer" : 0,
            "byteLength" : 107328,
            "byteOffset" : 0
        },
        {
            "buffer" : 0,
            "byteLength" : 107328,
            "byteOffset" : 107328
        },
        {
            "buffer" : 0,
            "byteLength" : 143104,
            "byteOffset" : 214656
        },
        {
            "buffer" : 0,
            "byteLength" : 71552,
            "byteOffset" : 357760
        },
        {
            "buffer" : 0,
            "byteLength" : 71552,
            "byteOffset" : 429312
        },
        {
            "buffer" : 0,
            "byteLength" : 26832,
            "byteOffset" : 500864
        },
        {
            "buffer" : 0,
            "byteLength" : 12672,
            "byteOffset" : 527696
        },
        {
            "buffer" : 0,
            "byteLength" : 12672,
            "byteOffset" : 540368
        },
        {
            "buffer" : 0,
            "byteLength" : 16896,
            "byteOffset" : 553040
        },
        {
            "buffer" : 0,
            "byteLength" : 8448,
            "byteOffset" : 569936
        },
        {
            "buffer" : 0,
            "byteLength" : 8448,
            "byteOffset" : 578384
        },
        {
            "buffer" : 0,
            "byteLength" : 3168,
            "byteOffset" : 586832
        }
    ],
    "samplers" : [
        {
            "magFilter" : 9729,
            "minFilter" : 9987
        }
    ],
    "buffers" : [
        {
            "byteLength" : 590000,
            "uri" : "StageMap.bin"
        }
    ]
}
