{
    "asset" : {
        "generator" : "Khronos glTF Blender I/O v1.6.16",
        "version" : "2.0"
    },
    "scene" : 0,
    "scenes" : [
        {
            "name" : "Scene",
            "nodes" : [
                0
            ]
        }
    ],
    "nodes" : [
        {
            "mesh" : 0,
            "name" : "14083_WWII_ship - UK - King_George_V_Class_Battleship_v1_L1"
        }
    ],
    "materials" : [
        {
            "doubleSided" : true,
            "name" : "_King_George_V",
            "normalTexture" : {
                "index" : 0
            },
            "pbrMetallicRoughness" : {
                "baseColorTexture" : {
                    "index" : 1
                },
                "metallicFactor" : 0,
                "roughnessFactor" : 0.7418010830879211
            }
        }
    ],
    "meshes" : [
        {
            "name" : "14083_WWII_ship - UK - King_George_V_Class_Battleship_v1_L1",
            "primitives" : [
                {
                    "attributes" : {
                        "POSITION" : 0,
                        "NORMAL" : 1,
                        "TEXCOORD_0" : 2
                    },
                    "indices" : 3,
                    "material" : 0
                }
            ]
        }
    ],
    "textures" : [
        {
            "sampler" : 0,
            "source" : 0
        },
        {
            "sampler" : 0,
            "source" : 1
        }
    ],
    "images" : [
        {
            "mimeType" : "image/jpeg",
            "name" : "King_George_V_bump",
            "uri" : "King_George_V_bump.jpg"
        },
        {
            "mimeType" : "image/jpeg",
            "name" : "King_George_V",
            "uri" : "King_George_V.jpg"
        }
    ],
    "accessors" : [
        {
            "bufferView" : 0,
            "componentType" : 5126,
            "count" : 15102,
            "max" : [
                1.3357000350952148,
                0.5490000247955322,
                0.19550000131130219
            ],
            "min" : [
                -1.3357000350952148,
                -0.031700000166893005,
                -0.19550000131130219
            ],
            "type" : "VEC3"
        },
        {
            "bufferView" : 1,
            "componentType" : 5126,
            "count" : 15102,
            "type" : "VEC3"
        },
        {
            "bufferView" : 2,
            "componentType" : 5126,
            "count" : 15102,
            "type" : "VEC2"
        },
        {
            "bufferView" : 3,
            "componentType" : 5123,
            "count" : 38964,
            "type" : "SCALAR"
        }
    ],
    "bufferViews" : [
        {
            "buffer" : 0,
            "byteLength" : 181224,
            "byteOffset" : 0
        },
        {
            "buffer" : 0,
            "byteLength" : 181224,
            "byteOffset" : 181224
        },
        {
            "buffer" : 0,
            "byteLength" : 120816,
            "byteOffset" : 362448
        },
        {
            "buffer" : 0,
            "byteLength" : 77928,
            "byteOffset" : 483264
        }
    ],
    "samplers" : [
        {
            "magFilter" : 9729,
            "minFilter" : 9987
        }
    ],
    "buffers" : [
        {
            "byteLength" : 561192,
            "uri" : "King_George_V.bin"
        }
    ]
}
