{
    "asset" : {
        "generator" : "Khronos glTF Blender I/O v1.6.16",
        "version" : "2.0"
    },
    "scene" : 0,
    "scenes" : [
        {
            "name" : "Scene",
            "nodes" : [
                0,
                1,
                2,
                3,
                4,
                5,
                6
            ]
        }
    ],
    "nodes" : [
        {
            "mesh" : 0,
            "name" : "Object_1.003",
            "rotation" : [
                0,
                1,
                0,
                -1.6292068494294654e-07
            ],
            "translation" : [
                0.08256317675113678,
                2.0197958946228027,
                -0.9548299312591553
            ]
        },
        {
            "mesh" : 1,
            "name" : "Object_1.002",
            "rotation" : [
                0,
                0,
                0,
                -1
            ],
            "translation" : [
                -0.04128167778253555,
                1.590061902999878,
                0.10035449266433716
            ]
        },
        {
            "mesh" : 2,
            "name" : "Object_1.001",
            "rotation" : [
                0,
                0,
                0,
                -1
            ],
            "translation" : [
                -0.04128161072731018,
                0.8615086078643799,
                0.8544754981994629
            ]
        },
        {
            "mesh" : 3,
            "name" : "Object_3",
            "rotation" : [
                0,
                1,
                0,
                -1.6292068494294654e-07
            ],
            "translation" : [
                -0.04128161072731018,
                0,
                0.8544754981994629
            ]
        },
        {
            "mesh" : 4,
            "name" : "Object_2",
            "rotation" : [
                0,
                1,
                0,
                -1.6292068494294654e-07
            ],
            "translation" : [
                -0.04128161072731018,
                0,
                0.8544754981994629
            ]
        },
        {
            "mesh" : 5,
            "name" : "Object_1",
            "rotation" : [
                0,
                1,
                0,
                -1.6292068494294654e-07
            ],
            "translation" : [
                -0.04128161072731018,
                0,
                0.8544754981994629
            ]
        },
        {
            "name" : "Object_3.001",
            "rotation" : [
                0,
                1,
                0,
                -1.6292068494294654e-07
            ],
            "translation" : [
                4.1155500411987305,
                0,
                0.8544754981994629
            ]
        }
    ],
    "materials" : [
        {
            "doubleSided" : true,
            "name" : "Material_1.003",
            "normalTexture" : {
                "index" : 0
            },
            "pbrMetallicRoughness" : {
                "baseColorTexture" : {
                    "index" : 1
                },
                "metallicFactor" : 0.6000000238418579
            }
        },
        {
            "doubleSided" : true,
            "name" : "Material_1.002",
            "normalTexture" : {
                "index" : 2
            },
            "pbrMetallicRoughness" : {
                "baseColorTexture" : {
                    "index" : 3
                },
                "metallicFactor" : 0.6000000238418579
            }
        },
        {
            "doubleSided" : true,
            "name" : "Material_1.001",
            "normalTexture" : {
                "index" : 4
            },
            "pbrMetallicRoughness" : {
                "baseColorTexture" : {
                    "index" : 5
                },
                "metallicFactor" : 0.6000000238418579
            }
        },
        {
            "doubleSided" : true,
            "name" : "Material_1",
            "normalTexture" : {
                "index" : 6
            },
            "pbrMetallicRoughness" : {
                "baseColorTexture" : {
                    "index" : 7
                },
                "metallicFactor" : 0.6000000238418579
            }
        },
        {
            "doubleSided" : true,
            "name" : "Material.002",
            "normalTexture" : {
                "index" : 8
            },
            "pbrMetallicRoughness" : {
                "baseColorTexture" : {
                    "index" : 9
                },
                "metallicFactor" : 0,
                "roughnessFactor" : 0.20000000298023224
            }
        },
        {
            "doubleSided" : true,
            "name" : "Material.001",
            "normalTexture" : {
                "index" : 10
            },
            "pbrMetallicRoughness" : {
                "baseColorTexture" : {
                    "index" : 11
                },
                "metallicFactor" : 0,
                "roughnessFactor" : 0.20000000298023224
            }
        }
    ],
    "meshes" : [
        {
            "name" : "Object_1.003",
            "primitives" : [
                {
                    "attributes" : {
                        "POSITION" : 0,
                        "NORMAL" : 1,
                        "TANGENT" : 2,
                        "TEXCOORD_0" : 3
                    },
                    "indices" : 4,
                    "material" : 0
                }
            ]
        },
        {
            "name" : "Object_1.002",
            "primitives" : [
                {
                    "attributes" : {
                        "POSITION" : 5,
                        "NORMAL" : 6,
                        "TANGENT" : 7,
                        "TEXCOORD_0" : 8
                    },
                    "indices" : 9,
                    "material" : 1
                }
            ]
        },
        {
            "name" : "Object_1.001",
            "primitives" : [
                {
                    "attributes" : {
                        "POSITION" : 10,
                        "NORMAL" : 11,
                        "TANGENT" : 12,
                        "TEXCOORD_0" : 13
                    },
                    "indices" : 14,
                    "material" : 2
                }
            ]
        },
        {
            "name" : "Object_3",
            "primitives" : [
                {
                    "attributes" : {
                        "POSITION" : 15,
                        "NORMAL" : 16,
                        "TANGENT" : 17,
                        "TEXCOORD_0" : 18
                    },
                    "indices" : 19,
                    "material" : 3
                }
            ]
        },
        {
            "name" : "Object_2",
            "primitives" : [
                {
                    "attributes" : {
                        "POSITION" : 20,
                        "NORMAL" : 21,
                        "TANGENT" : 22,
                        "TEXCOORD_0" : 23
                    },
                    "indices" : 24,
                    "material" : 4
                }
            ]
        },
        {
            "name" : "Object_1",
            "primitives" : [
                {
                    "attributes" : {
                        "POSITION" : 25,
                        "NORMAL" : 26,
                        "TANGENT" : 27,
                        "TEXCOORD_0" : 28
                    },
                    "indices" : 24,
                    "material" : 5
                }
            ]
        }
    ],
    "textures" : [
        {
            "sampler" : 0,
            "source" : 0
        },
        {
            "sampler" : 0,
            "source" : 1
        },
        {
            "sampler" : 0,
            "source" : 0
        },
        {
            "sampler" : 0,
            "source" : 1
        },
        {
            "sampler" : 0,
            "source" : 0
        },
        {
            "sampler" : 0,
            "source" : 1
        },
        {
            "sampler" : 0,
            "source" : 0
        },
        {
            "sampler" : 0,
            "source" : 1
        },
        {
            "sampler" : 0,
            "source" : 2
        },
        {
            "sampler" : 0,
            "source" : 3
        },
        {
            "sampler" : 0,
            "source" : 2
        },
        {
            "sampler" : 0,
            "source" : 3
        }
    ],
    "images" : [
        {
            "mimeType" : "image/png",
            "name" : "T-43_NM",
            "uri" : "T-43_NM.png"
        },
        {
            "mimeType" : "image/png",
            "name" : "T-43",
            "uri" : "T-43.png"
        },
        {
            "mimeType" : "image/png",
            "name" : "Track_NM",
            "uri" : "Track_NM.png"
        },
        {
            "mimeType" : "image/png",
            "name" : "Track",
            "uri" : "Track.png"
        }
    ],
    "accessors" : [
        {
            "bufferView" : 0,
            "componentType" : 5126,
            "count" : 844,
            "max" : [
                0.479209303855896,
                0.31828951835632324,
                4.0342559814453125
            ],
            "min" : [
                -0.33798643946647644,
                -0.3183700144290924,
                -0.12183655798435211
            ],
            "type" : "VEC3"
        },
        {
            "bufferView" : 1,
            "componentType" : 5126,
            "count" : 844,
            "type" : "VEC3"
        },
        {
            "bufferView" : 2,
            "componentType" : 5126,
            "count" : 844,
            "type" : "VEC4"
        },
        {
            "bufferView" : 3,
            "componentType" : 5126,
            "count" : 844,
            "type" : "VEC2"
        },
        {
            "bufferView" : 4,
            "componentType" : 5123,
            "count" : 846,
            "type" : "SCALAR"
        },
        {
            "bufferView" : 5,
            "componentType" : 5126,
            "count" : 4452,
            "max" : [
                1.0496965646743774,
                2.1589441299438477,
                1.4083842039108276
            ],
            "min" : [
                -1.0731984376907349,
                -0.0022620009258389473,
                -1.3612160682678223
            ],
            "type" : "VEC3"
        },
        {
            "bufferView" : 6,
            "componentType" : 5126,
            "count" : 4452,
            "type" : "VEC3"
        },
        {
            "bufferView" : 7,
            "componentType" : 5126,
            "count" : 4452,
            "type" : "VEC4"
        },
        {
            "bufferView" : 8,
            "componentType" : 5126,
            "count" : 4452,
            "type" : "VEC2"
        },
        {
            "bufferView" : 9,
            "componentType" : 5123,
            "count" : 4488,
            "type" : "SCALAR"
        },
        {
            "bufferView" : 10,
            "componentType" : 5126,
            "count" : 7586,
            "max" : [
                1.3702771663665771,
                0.8466885089874268,
                2.887317180633545
            ],
            "min" : [
                -1.3395179510116577,
                -0.42294150590896606,
                -3.0231337547302246
            ],
            "type" : "VEC3"
        },
        {
            "bufferView" : 11,
            "componentType" : 5126,
            "count" : 7586,
            "type" : "VEC3"
        },
        {
            "bufferView" : 12,
            "componentType" : 5126,
            "count" : 7586,
            "type" : "VEC4"
        },
        {
            "bufferView" : 13,
            "componentType" : 5126,
            "count" : 7586,
            "type" : "VEC2"
        },
        {
            "bufferView" : 14,
            "componentType" : 5123,
            "count" : 7608,
            "type" : "SCALAR"
        },
        {
            "bufferView" : 15,
            "componentType" : 5126,
            "count" : 8976,
            "max" : [
                1.2779432535171509,
                0.9979166984558105,
                2.7294273376464844
            ],
            "min" : [
                -1.2778346538543701,
                0.026930708438158035,
                -2.7721991539001465
            ],
            "type" : "VEC3"
        },
        {
            "bufferView" : 16,
            "componentType" : 5126,
            "count" : 8976,
            "type" : "VEC3"
        },
        {
            "bufferView" : 17,
            "componentType" : 5126,
            "count" : 8976,
            "type" : "VEC4"
        },
        {
            "bufferView" : 18,
            "componentType" : 5126,
            "count" : 8976,
            "type" : "VEC2"
        },
        {
            "bufferView" : 19,
            "componentType" : 5123,
            "count" : 9012,
            "type" : "SCALAR"
        },
        {
            "bufferView" : 20,
            "componentType" : 5126,
            "count" : 1008,
            "max" : [
                -0.8792657256126404,
                1.0351084470748901,
                2.7628653049468994
            ],
            "min" : [
                -1.3758320808410645,
                -0.002338523743674159,
                -2.8080825805664062
            ],
            "type" : "VEC3"
        },
        {
            "bufferView" : 21,
            "componentType" : 5126,
            "count" : 1008,
            "type" : "VEC3"
        },
        {
            "bufferView" : 22,
            "componentType" : 5126,
            "count" : 1008,
            "type" : "VEC4"
        },
        {
            "bufferView" : 23,
            "componentType" : 5126,
            "count" : 1008,
            "type" : "VEC2"
        },
        {
            "bufferView" : 24,
            "componentType" : 5123,
            "count" : 1008,
            "type" : "SCALAR"
        },
        {
            "bufferView" : 25,
            "componentType" : 5126,
            "count" : 1008,
            "max" : [
                1.3758320808410645,
                1.0351084470748901,
                2.7628653049468994
            ],
            "min" : [
                0.8792657256126404,
                -0.002338523743674159,
                -2.8080825805664062
            ],
            "type" : "VEC3"
        },
        {
            "bufferView" : 26,
            "componentType" : 5126,
            "count" : 1008,
            "type" : "VEC3"
        },
        {
            "bufferView" : 27,
            "componentType" : 5126,
            "count" : 1008,
            "type" : "VEC4"
        },
        {
            "bufferView" : 28,
            "componentType" : 5126,
            "count" : 1008,
            "type" : "VEC2"
        }
    ],
    "bufferViews" : [
        {
            "buffer" : 0,
            "byteLength" : 10128,
            "byteOffset" : 0
        },
        {
            "buffer" : 0,
            "byteLength" : 10128,
            "byteOffset" : 10128
        },
        {
            "buffer" : 0,
            "byteLength" : 13504,
            "byteOffset" : 20256
        },
        {
            "buffer" : 0,
            "byteLength" : 6752,
            "byteOffset" : 33760
        },
        {
            "buffer" : 0,
            "byteLength" : 1692,
            "byteOffset" : 40512
        },
        {
            "buffer" : 0,
            "byteLength" : 53424,
            "byteOffset" : 42204
        },
        {
            "buffer" : 0,
            "byteLength" : 53424,
            "byteOffset" : 95628
        },
        {
            "buffer" : 0,
            "byteLength" : 71232,
            "byteOffset" : 149052
        },
        {
            "buffer" : 0,
            "byteLength" : 35616,
            "byteOffset" : 220284
        },
        {
            "buffer" : 0,
            "byteLength" : 8976,
            "byteOffset" : 255900
        },
        {
            "buffer" : 0,
            "byteLength" : 91032,
            "byteOffset" : 264876
        },
        {
            "buffer" : 0,
            "byteLength" : 91032,
            "byteOffset" : 355908
        },
        {
            "buffer" : 0,
            "byteLength" : 121376,
            "byteOffset" : 446940
        },
        {
            "buffer" : 0,
            "byteLength" : 60688,
            "byteOffset" : 568316
        },
        {
            "buffer" : 0,
            "byteLength" : 15216,
            "byteOffset" : 629004
        },
        {
            "buffer" : 0,
            "byteLength" : 107712,
            "byteOffset" : 644220
        },
        {
            "buffer" : 0,
            "byteLength" : 107712,
            "byteOffset" : 751932
        },
        {
            "buffer" : 0,
            "byteLength" : 143616,
            "byteOffset" : 859644
        },
        {
            "buffer" : 0,
            "byteLength" : 71808,
            "byteOffset" : 1003260
        },
        {
            "buffer" : 0,
            "byteLength" : 18024,
            "byteOffset" : 1075068
        },
        {
            "buffer" : 0,
            "byteLength" : 12096,
            "byteOffset" : 1093092
        },
        {
            "buffer" : 0,
            "byteLength" : 12096,
            "byteOffset" : 1105188
        },
        {
            "buffer" : 0,
            "byteLength" : 16128,
            "byteOffset" : 1117284
        },
        {
            "buffer" : 0,
            "byteLength" : 8064,
            "byteOffset" : 1133412
        },
        {
            "buffer" : 0,
            "byteLength" : 2016,
            "byteOffset" : 1141476
        },
        {
            "buffer" : 0,
            "byteLength" : 12096,
            "byteOffset" : 1143492
        },
        {
            "buffer" : 0,
            "byteLength" : 12096,
            "byteOffset" : 1155588
        },
        {
            "buffer" : 0,
            "byteLength" : 16128,
            "byteOffset" : 1167684
        },
        {
            "buffer" : 0,
            "byteLength" : 8064,
            "byteOffset" : 1183812
        }
    ],
    "samplers" : [
        {
            "magFilter" : 9729,
            "minFilter" : 9987
        }
    ],
    "buffers" : [
        {
            "byteLength" : 1191876,
            "uri" : "T43_Full.bin"
        }
    ]
}
