{
    "asset" : {
        "generator" : "Khronos glTF Blender I/O v1.6.16",
        "version" : "2.0"
    },
    "scene" : 0,
    "scenes" : [
        {
            "name" : "Scene",
            "nodes" : [
                0
            ]
        }
    ],
    "nodes" : [
        {
            "mesh" : 0,
            "name" : "TireMin",
            "rotation" : [
                0,
                1,
                0,
                -1.6292068494294654e-07
            ]
        }
    ],
    "materials" : [
        {
            "doubleSided" : true,
            "name" : "Material_1.004",
            "normalTexture" : {
                "index" : 0
            },
            "pbrMetallicRoughness" : {
                "baseColorTexture" : {
                    "index" : 1
                },
                "metallicFactor" : 0.6000000238418579
            }
        }
    ],
    "meshes" : [
        {
            "name" : "Object_3.002",
            "primitives" : [
                {
                    "attributes" : {
                        "POSITION" : 0,
                        "NORMAL" : 1,
                        "TANGENT" : 2,
                        "TEXCOORD_0" : 3
                    },
                    "indices" : 4,
                    "material" : 0
                }
            ]
        }
    ],
    "textures" : [
        {
            "sampler" : 0,
            "source" : 0
        },
        {
            "sampler" : 0,
            "source" : 1
        }
    ],
    "images" : [
        {
            "mimeType" : "image/png",
            "name" : "T-43_NM",
            "uri" : "T-43_NM.png"
        },
        {
            "mimeType" : "image/png",
            "name" : "T-43",
            "uri" : "T-43.png"
        }
    ],
    "accessors" : [
        {
            "bufferView" : 0,
            "componentType" : 5126,
            "count" : 802,
            "max" : [
                0.20560705661773682,
                0.3110305070877075,
                0.3078784942626953
            ],
            "min" : [
                -0.06515896320343018,
                -0.30670419335365295,
                -0.3098561763763428
            ],
            "type" : "VEC3"
        },
        {
            "bufferView" : 1,
            "componentType" : 5126,
            "count" : 802,
            "type" : "VEC3"
        },
        {
            "bufferView" : 2,
            "componentType" : 5126,
            "count" : 802,
            "type" : "VEC4"
        },
        {
            "bufferView" : 3,
            "componentType" : 5126,
            "count" : 802,
            "type" : "VEC2"
        },
        {
            "bufferView" : 4,
            "componentType" : 5123,
            "count" : 804,
            "type" : "SCALAR"
        }
    ],
    "bufferViews" : [
        {
            "buffer" : 0,
            "byteLength" : 9624,
            "byteOffset" : 0
        },
        {
            "buffer" : 0,
            "byteLength" : 9624,
            "byteOffset" : 9624
        },
        {
            "buffer" : 0,
            "byteLength" : 12832,
            "byteOffset" : 19248
        },
        {
            "buffer" : 0,
            "byteLength" : 6416,
            "byteOffset" : 32080
        },
        {
            "buffer" : 0,
            "byteLength" : 1608,
            "byteOffset" : 38496
        }
    ],
    "samplers" : [
        {
            "magFilter" : 9729,
            "minFilter" : 9987
        }
    ],
    "buffers" : [
        {
            "byteLength" : 40104,
            "uri" : "T43_TireMin.bin"
        }
    ]
}
