{
    "asset" : {
        "generator" : "Khronos glTF Blender I/O v1.6.16",
        "version" : "2.0"
    },
    "scene" : 0,
    "scenes" : [
        {
            "name" : "Scene",
            "nodes" : [
                0,
                1
            ]
        }
    ],
    "nodes" : [
        {
            "mesh" : 0,
            "name" : "Object_1.003",
            "rotation" : [
                0,
                1,
                0,
                -1.6292068494294654e-07
            ],
            "translation" : [
                0.08256317675113678,
                0.029330849647521973,
                -1.7106361389160156
            ]
        },
        {
            "name" : "Object_3.001",
            "rotation" : [
                0,
                1,
                0,
                -1.6292068494294654e-07
            ],
            "translation" : [
                4.1155500411987305,
                0,
                0.8544754981994629
            ]
        }
    ],
    "materials" : [
        {
            "doubleSided" : true,
            "name" : "Material_1.003",
            "normalTexture" : {
                "index" : 0
            },
            "pbrMetallicRoughness" : {
                "baseColorTexture" : {
                    "index" : 1
                },
                "metallicFactor" : 0.6000000238418579,
                "roughnessFactor" : 0.6000000238418579
            }
        }
    ],
    "meshes" : [
        {
            "name" : "Object_1.003",
            "primitives" : [
                {
                    "attributes" : {
                        "POSITION" : 0,
                        "NORMAL" : 1,
                        "TANGENT" : 2,
                        "TEXCOORD_0" : 3
                    },
                    "indices" : 4,
                    "material" : 0
                }
            ]
        }
    ],
    "textures" : [
        {
            "sampler" : 0,
            "source" : 0
        },
        {
            "sampler" : 0,
            "source" : 1
        }
    ],
    "images" : [
        {
            "mimeType" : "image/png",
            "name" : "T-43_NM",
            "uri" : "T-43_NM.png"
        },
        {
            "mimeType" : "image/png",
            "name" : "T-43",
            "uri" : "T-43.png"
        }
    ],
    "accessors" : [
        {
            "bufferView" : 0,
            "componentType" : 5126,
            "count" : 844,
            "max" : [
                0.44092482328414917,
                0.3190876543521881,
                2.448836326599121
            ],
            "min" : [
                -0.37627092003822327,
                -0.31757187843322754,
                -1.7072561979293823
            ],
            "type" : "VEC3"
        },
        {
            "bufferView" : 1,
            "componentType" : 5126,
            "count" : 844,
            "type" : "VEC3"
        },
        {
            "bufferView" : 2,
            "componentType" : 5126,
            "count" : 844,
            "type" : "VEC4"
        },
        {
            "bufferView" : 3,
            "componentType" : 5126,
            "count" : 844,
            "type" : "VEC2"
        },
        {
            "bufferView" : 4,
            "componentType" : 5123,
            "count" : 846,
            "type" : "SCALAR"
        }
    ],
    "bufferViews" : [
        {
            "buffer" : 0,
            "byteLength" : 10128,
            "byteOffset" : 0
        },
        {
            "buffer" : 0,
            "byteLength" : 10128,
            "byteOffset" : 10128
        },
        {
            "buffer" : 0,
            "byteLength" : 13504,
            "byteOffset" : 20256
        },
        {
            "buffer" : 0,
            "byteLength" : 6752,
            "byteOffset" : 33760
        },
        {
            "buffer" : 0,
            "byteLength" : 1692,
            "byteOffset" : 40512
        }
    ],
    "samplers" : [
        {
            "magFilter" : 9729,
            "minFilter" : 9987
        }
    ],
    "buffers" : [
        {
            "byteLength" : 42204,
            "uri" : "T43_MainGun.bin"
        }
    ]
}
