{
    "asset" : {
        "generator" : "Khronos glTF Blender I/O v1.6.16",
        "version" : "2.0"
    },
    "scene" : 0,
    "scenes" : [
        {
            "name" : "Scene",
            "nodes" : [
                1
            ]
        }
    ],
    "nodes" : [
        {
            "mesh" : 0,
            "name" : "leaves.001"
        },
        {
            "children" : [
                0
            ],
            "mesh" : 1,
            "name" : "tree.001"
        }
    ],
    "materials" : [
        {
            "doubleSided" : true,
            "name" : "Leaves",
            "pbrMetallicRoughness" : {
                "baseColorTexture" : {
                    "index" : 0
                },
                "metallicFactor" : 0,
                "roughnessFactor" : 0.5
            }
        },
        {
            "doubleSided" : true,
            "name" : "Material.001",
            "pbrMetallicRoughness" : {
                "baseColorFactor" : [
                    0.0401504747569561,
                    0.006773027591407299,
                    0.0031359123531728983,
                    1
                ],
                "metallicFactor" : 0,
                "roughnessFactor" : 0.5
            }
        }
    ],
    "meshes" : [
        {
            "name" : "leaves.001",
            "primitives" : [
                {
                    "attributes" : {
                        "POSITION" : 0,
                        "NORMAL" : 1,
                        "TANGENT" : 2,
                        "TEXCOORD_0" : 3
                    },
                    "indices" : 4,
                    "material" : 0
                }
            ]
        },
        {
            "name" : "Mesh.002",
            "primitives" : [
                {
                    "attributes" : {
                        "POSITION" : 5,
                        "NORMAL" : 6
                    },
                    "indices" : 7,
                    "material" : 1
                }
            ]
        }
    ],
    "textures" : [
        {
            "sampler" : 0,
            "source" : 0
        }
    ],
    "images" : [
        {
            "mimeType" : "image/png",
            "name" : "Leaves0120_35_S",
            "uri" : "Leaves0120_35_S.png"
        }
    ],
    "accessors" : [
        {
            "bufferView" : 0,
            "componentType" : 5126,
            "count" : 362852,
            "max" : [
                3.991142749786377,
                17.672042846679688,
                4.5220136642456055
            ],
            "min" : [
                -3.681307077407837,
                4.5306172370910645,
                -4.065606594085693
            ],
            "type" : "VEC3"
        },
        {
            "bufferView" : 1,
            "componentType" : 5126,
            "count" : 362852,
            "type" : "VEC3"
        },
        {
            "bufferView" : 2,
            "componentType" : 5126,
            "count" : 362852,
            "type" : "VEC4"
        },
        {
            "bufferView" : 3,
            "componentType" : 5126,
            "count" : 362852,
            "type" : "VEC2"
        },
        {
            "bufferView" : 4,
            "componentType" : 5125,
            "count" : 544278,
            "type" : "SCALAR"
        },
        {
            "bufferView" : 5,
            "componentType" : 5126,
            "count" : 108416,
            "max" : [
                3.910686731338501,
                17.49358558654785,
                4.306872367858887
            ],
            "min" : [
                -3.5128471851348877,
                -0.012235975824296474,
                -3.8573412895202637
            ],
            "type" : "VEC3"
        },
        {
            "bufferView" : 6,
            "componentType" : 5126,
            "count" : 108416,
            "type" : "VEC3"
        },
        {
            "bufferView" : 7,
            "componentType" : 5125,
            "count" : 366192,
            "type" : "SCALAR"
        }
    ],
    "bufferViews" : [
        {
            "buffer" : 0,
            "byteLength" : 4354224,
            "byteOffset" : 0
        },
        {
            "buffer" : 0,
            "byteLength" : 4354224,
            "byteOffset" : 4354224
        },
        {
            "buffer" : 0,
            "byteLength" : 5805632,
            "byteOffset" : 8708448
        },
        {
            "buffer" : 0,
            "byteLength" : 2902816,
            "byteOffset" : 14514080
        },
        {
            "buffer" : 0,
            "byteLength" : 2177112,
            "byteOffset" : 17416896
        },
        {
            "buffer" : 0,
            "byteLength" : 1300992,
            "byteOffset" : 19594008
        },
        {
            "buffer" : 0,
            "byteLength" : 1300992,
            "byteOffset" : 20895000
        },
        {
            "buffer" : 0,
            "byteLength" : 1464768,
            "byteOffset" : 22195992
        }
    ],
    "samplers" : [
        {
            "magFilter" : 9729,
            "minFilter" : 9987
        }
    ],
    "buffers" : [
        {
            "byteLength" : 23660760,
            "uri" : "Tree01.bin"
        }
    ]
}
