{
    "asset" : {
        "generator" : "Khronos glTF Blender I/O v1.6.16",
        "version" : "2.0"
    },
    "scene" : 0,
    "scenes" : [
        {
            "name" : "Scene",
            "nodes" : [
                0,
                1,
                2,
                3,
                4,
                5,
                6
            ]
        }
    ],
    "nodes" : [
        {
            "mesh" : 0,
            "name" : "Gun1",
            "rotation" : [
                0,
                1,
                0,
                -1.6292068494294654e-07
            ],
            "translation" : [
                0,
                2.2559149265289307,
                -0.5855664610862732
            ]
        },
        {
            "mesh" : 1,
            "name" : "Turret",
            "rotation" : [
                0,
                0,
                0,
                -1
            ],
            "translation" : [
                0,
                1.8414409160614014,
                0.25113368034362793
            ]
        },
        {
            "mesh" : 2,
            "name" : "Hull",
            "rotation" : [
                0,
                0,
                0,
                -1
            ],
            "translation" : [
                0,
                0.8330451846122742,
                0.22295522689819336
            ]
        },
        {
            "mesh" : 3,
            "name" : "Wheels_Right",
            "rotation" : [
                0,
                1,
                0,
                -1.6292068494294654e-07
            ],
            "translation" : [
                0,
                0.02182769775390625,
                0.22295522689819336
            ]
        },
        {
            "mesh" : 4,
            "name" : "Wheels_Left",
            "rotation" : [
                0,
                1,
                0,
                -1.6292068494294654e-07
            ],
            "translation" : [
                0,
                0.02182769775390625,
                0.22295522689819336
            ]
        },
        {
            "mesh" : 5,
            "name" : "Track_Right",
            "rotation" : [
                0,
                1,
                0,
                -1.6292068494294654e-07
            ],
            "translation" : [
                0,
                0.02182769775390625,
                0.22295522689819336
            ]
        },
        {
            "mesh" : 6,
            "name" : "Track_Left",
            "rotation" : [
                0,
                1,
                0,
                -1.6292068494294654e-07
            ],
            "translation" : [
                0,
                0.02182769775390625,
                0.22295522689819336
            ]
        }
    ],
    "materials" : [
        {
            "doubleSided" : true,
            "name" : "Material_1.004",
            "normalTexture" : {
                "index" : 0
            },
            "pbrMetallicRoughness" : {
                "baseColorTexture" : {
                    "index" : 1
                },
                "metallicFactor" : 0.19999998807907104,
                "roughnessFactor" : 0.800000011920929
            }
        },
        {
            "doubleSided" : true,
            "name" : "Material_1",
            "normalTexture" : {
                "index" : 2
            },
            "pbrMetallicRoughness" : {
                "baseColorTexture" : {
                    "index" : 3
                },
                "metallicFactor" : 0,
                "roughnessFactor" : 0.699999988079071
            }
        }
    ],
    "meshes" : [
        {
            "name" : "Object_1.003",
            "primitives" : [
                {
                    "attributes" : {
                        "POSITION" : 0,
                        "NORMAL" : 1,
                        "TANGENT" : 2,
                        "TEXCOORD_0" : 3
                    },
                    "indices" : 4,
                    "material" : 0
                }
            ]
        },
        {
            "name" : "Object_1.002",
            "primitives" : [
                {
                    "attributes" : {
                        "POSITION" : 5,
                        "NORMAL" : 6,
                        "TANGENT" : 7,
                        "TEXCOORD_0" : 8
                    },
                    "indices" : 9,
                    "material" : 0
                }
            ]
        },
        {
            "name" : "Object_1.001",
            "primitives" : [
                {
                    "attributes" : {
                        "POSITION" : 10,
                        "NORMAL" : 11,
                        "TANGENT" : 12,
                        "TEXCOORD_0" : 13
                    },
                    "indices" : 14,
                    "material" : 0
                }
            ]
        },
        {
            "name" : "Object_4",
            "primitives" : [
                {
                    "attributes" : {
                        "POSITION" : 15,
                        "NORMAL" : 16,
                        "TANGENT" : 17,
                        "TEXCOORD_0" : 18
                    },
                    "indices" : 19,
                    "material" : 0
                }
            ]
        },
        {
            "name" : "Object_3",
            "primitives" : [
                {
                    "attributes" : {
                        "POSITION" : 20,
                        "NORMAL" : 21,
                        "TANGENT" : 22,
                        "TEXCOORD_0" : 23
                    },
                    "indices" : 24,
                    "material" : 0
                }
            ]
        },
        {
            "name" : "Object_2",
            "primitives" : [
                {
                    "attributes" : {
                        "POSITION" : 25,
                        "NORMAL" : 26,
                        "TANGENT" : 27,
                        "TEXCOORD_0" : 28
                    },
                    "indices" : 29,
                    "material" : 1
                }
            ]
        },
        {
            "name" : "Object_1",
            "primitives" : [
                {
                    "attributes" : {
                        "POSITION" : 30,
                        "NORMAL" : 31,
                        "TANGENT" : 32,
                        "TEXCOORD_0" : 33
                    },
                    "indices" : 34,
                    "material" : 1
                }
            ]
        }
    ],
    "textures" : [
        {
            "sampler" : 0,
            "source" : 0
        },
        {
            "sampler" : 0,
            "source" : 1
        },
        {
            "sampler" : 0,
            "source" : 2
        },
        {
            "sampler" : 0,
            "source" : 3
        }
    ],
    "images" : [
        {
            "mimeType" : "image/png",
            "name" : "M4_Sherman_NM",
            "uri" : "M4_Sherman_NM.png"
        },
        {
            "mimeType" : "image/png",
            "name" : "M4_Sherman_dds",
            "uri" : "M4_Sherman_dds.png"
        },
        {
            "mimeType" : "image/png",
            "name" : "M4A3_track_NM",
            "uri" : "M4A3_track_NM.png"
        },
        {
            "mimeType" : "image/png",
            "name" : "M4A3_track",
            "uri" : "M4A3_track.png"
        }
    ],
    "accessors" : [
        {
            "bufferView" : 0,
            "componentType" : 5126,
            "count" : 777,
            "max" : [
                0.6653031706809998,
                0.27345719933509827,
                2.9958150386810303
            ],
            "min" : [
                -0.6640974879264832,
                -0.21407224237918854,
                -0.04701494425535202
            ],
            "type" : "VEC3"
        },
        {
            "bufferView" : 1,
            "componentType" : 5126,
            "count" : 777,
            "type" : "VEC3"
        },
        {
            "bufferView" : 2,
            "componentType" : 5126,
            "count" : 777,
            "type" : "VEC4"
        },
        {
            "bufferView" : 3,
            "componentType" : 5126,
            "count" : 777,
            "type" : "VEC2"
        },
        {
            "bufferView" : 4,
            "componentType" : 5123,
            "count" : 783,
            "type" : "SCALAR"
        },
        {
            "bufferView" : 5,
            "componentType" : 5126,
            "count" : 2274,
            "max" : [
                1.0101648569107056,
                2.298617362976074,
                1.5528011322021484
            ],
            "min" : [
                -1.0271884202957153,
                -0.0008042046101763844,
                -1.002503752708435
            ],
            "type" : "VEC3"
        },
        {
            "bufferView" : 6,
            "componentType" : 5126,
            "count" : 2274,
            "type" : "VEC3"
        },
        {
            "bufferView" : 7,
            "componentType" : 5126,
            "count" : 2274,
            "type" : "VEC4"
        },
        {
            "bufferView" : 8,
            "componentType" : 5126,
            "count" : 2274,
            "type" : "VEC2"
        },
        {
            "bufferView" : 9,
            "componentType" : 5123,
            "count" : 2397,
            "type" : "SCALAR"
        },
        {
            "bufferView" : 10,
            "componentType" : 5126,
            "count" : 10809,
            "max" : [
                1.303425669670105,
                1.1121987104415894,
                3.0559844970703125
            ],
            "min" : [
                -1.3016269207000732,
                -0.4312729835510254,
                -2.6726131439208984
            ],
            "type" : "VEC3"
        },
        {
            "bufferView" : 11,
            "componentType" : 5126,
            "count" : 10809,
            "type" : "VEC3"
        },
        {
            "bufferView" : 12,
            "componentType" : 5126,
            "count" : 10809,
            "type" : "VEC4"
        },
        {
            "bufferView" : 13,
            "componentType" : 5126,
            "count" : 10809,
            "type" : "VEC2"
        },
        {
            "bufferView" : 14,
            "componentType" : 5123,
            "count" : 11199,
            "type" : "SCALAR"
        },
        {
            "bufferView" : 15,
            "componentType" : 5126,
            "count" : 5853,
            "max" : [
                -0.6898306012153625,
                1.0666157007217407,
                2.7392406463623047
            ],
            "min" : [
                -1.2649948596954346,
                0.05975224822759628,
                -2.7801945209503174
            ],
            "type" : "VEC3"
        },
        {
            "bufferView" : 16,
            "componentType" : 5126,
            "count" : 5853,
            "type" : "VEC3"
        },
        {
            "bufferView" : 17,
            "componentType" : 5126,
            "count" : 5853,
            "type" : "VEC4"
        },
        {
            "bufferView" : 18,
            "componentType" : 5126,
            "count" : 5853,
            "type" : "VEC2"
        },
        {
            "bufferView" : 19,
            "componentType" : 5123,
            "count" : 6432,
            "type" : "SCALAR"
        },
        {
            "bufferView" : 20,
            "componentType" : 5126,
            "count" : 5828,
            "max" : [
                1.2671037912368774,
                1.0666157007217407,
                2.7392406463623047
            ],
            "min" : [
                0.6915251612663269,
                0.059752244502305984,
                -2.7801945209503174
            ],
            "type" : "VEC3"
        },
        {
            "bufferView" : 21,
            "componentType" : 5126,
            "count" : 5828,
            "type" : "VEC3"
        },
        {
            "bufferView" : 22,
            "componentType" : 5126,
            "count" : 5828,
            "type" : "VEC4"
        },
        {
            "bufferView" : 23,
            "componentType" : 5126,
            "count" : 5828,
            "type" : "VEC2"
        },
        {
            "bufferView" : 24,
            "componentType" : 5123,
            "count" : 6432,
            "type" : "SCALAR"
        },
        {
            "bufferView" : 25,
            "componentType" : 5126,
            "count" : 768,
            "max" : [
                -0.8355411887168884,
                1.0882537364959717,
                2.7591426372528076
            ],
            "min" : [
                -1.259891152381897,
                -9.53674295089968e-09,
                -2.8493871688842773
            ],
            "type" : "VEC3"
        },
        {
            "bufferView" : 26,
            "componentType" : 5126,
            "count" : 768,
            "type" : "VEC3"
        },
        {
            "bufferView" : 27,
            "componentType" : 5126,
            "count" : 768,
            "type" : "VEC4"
        },
        {
            "bufferView" : 28,
            "componentType" : 5126,
            "count" : 768,
            "type" : "VEC2"
        },
        {
            "bufferView" : 29,
            "componentType" : 5123,
            "count" : 768,
            "type" : "SCALAR"
        },
        {
            "bufferView" : 30,
            "componentType" : 5126,
            "count" : 768,
            "max" : [
                1.259891152381897,
                1.0882537364959717,
                2.7591426372528076
            ],
            "min" : [
                0.8355411887168884,
                -9.53674295089968e-09,
                -2.8493871688842773
            ],
            "type" : "VEC3"
        },
        {
            "bufferView" : 31,
            "componentType" : 5126,
            "count" : 768,
            "type" : "VEC3"
        },
        {
            "bufferView" : 32,
            "componentType" : 5126,
            "count" : 768,
            "type" : "VEC4"
        },
        {
            "bufferView" : 33,
            "componentType" : 5126,
            "count" : 768,
            "type" : "VEC2"
        },
        {
            "bufferView" : 34,
            "componentType" : 5123,
            "count" : 768,
            "type" : "SCALAR"
        }
    ],
    "bufferViews" : [
        {
            "buffer" : 0,
            "byteLength" : 9324,
            "byteOffset" : 0
        },
        {
            "buffer" : 0,
            "byteLength" : 9324,
            "byteOffset" : 9324
        },
        {
            "buffer" : 0,
            "byteLength" : 12432,
            "byteOffset" : 18648
        },
        {
            "buffer" : 0,
            "byteLength" : 6216,
            "byteOffset" : 31080
        },
        {
            "buffer" : 0,
            "byteLength" : 1566,
            "byteOffset" : 37296
        },
        {
            "buffer" : 0,
            "byteLength" : 27288,
            "byteOffset" : 38864
        },
        {
            "buffer" : 0,
            "byteLength" : 27288,
            "byteOffset" : 66152
        },
        {
            "buffer" : 0,
            "byteLength" : 36384,
            "byteOffset" : 93440
        },
        {
            "buffer" : 0,
            "byteLength" : 18192,
            "byteOffset" : 129824
        },
        {
            "buffer" : 0,
            "byteLength" : 4794,
            "byteOffset" : 148016
        },
        {
            "buffer" : 0,
            "byteLength" : 129708,
            "byteOffset" : 152812
        },
        {
            "buffer" : 0,
            "byteLength" : 129708,
            "byteOffset" : 282520
        },
        {
            "buffer" : 0,
            "byteLength" : 172944,
            "byteOffset" : 412228
        },
        {
            "buffer" : 0,
            "byteLength" : 86472,
            "byteOffset" : 585172
        },
        {
            "buffer" : 0,
            "byteLength" : 22398,
            "byteOffset" : 671644
        },
        {
            "buffer" : 0,
            "byteLength" : 70236,
            "byteOffset" : 694044
        },
        {
            "buffer" : 0,
            "byteLength" : 70236,
            "byteOffset" : 764280
        },
        {
            "buffer" : 0,
            "byteLength" : 93648,
            "byteOffset" : 834516
        },
        {
            "buffer" : 0,
            "byteLength" : 46824,
            "byteOffset" : 928164
        },
        {
            "buffer" : 0,
            "byteLength" : 12864,
            "byteOffset" : 974988
        },
        {
            "buffer" : 0,
            "byteLength" : 69936,
            "byteOffset" : 987852
        },
        {
            "buffer" : 0,
            "byteLength" : 69936,
            "byteOffset" : 1057788
        },
        {
            "buffer" : 0,
            "byteLength" : 93248,
            "byteOffset" : 1127724
        },
        {
            "buffer" : 0,
            "byteLength" : 46624,
            "byteOffset" : 1220972
        },
        {
            "buffer" : 0,
            "byteLength" : 12864,
            "byteOffset" : 1267596
        },
        {
            "buffer" : 0,
            "byteLength" : 9216,
            "byteOffset" : 1280460
        },
        {
            "buffer" : 0,
            "byteLength" : 9216,
            "byteOffset" : 1289676
        },
        {
            "buffer" : 0,
            "byteLength" : 12288,
            "byteOffset" : 1298892
        },
        {
            "buffer" : 0,
            "byteLength" : 6144,
            "byteOffset" : 1311180
        },
        {
            "buffer" : 0,
            "byteLength" : 1536,
            "byteOffset" : 1317324
        },
        {
            "buffer" : 0,
            "byteLength" : 9216,
            "byteOffset" : 1318860
        },
        {
            "buffer" : 0,
            "byteLength" : 9216,
            "byteOffset" : 1328076
        },
        {
            "buffer" : 0,
            "byteLength" : 12288,
            "byteOffset" : 1337292
        },
        {
            "buffer" : 0,
            "byteLength" : 6144,
            "byteOffset" : 1349580
        },
        {
            "buffer" : 0,
            "byteLength" : 1536,
            "byteOffset" : 1355724
        }
    ],
    "samplers" : [
        {
            "magFilter" : 9729,
            "minFilter" : 9987
        }
    ],
    "buffers" : [
        {
            "byteLength" : 1357260,
            "uri" : "M4.bin"
        }
    ]
}
