{
    "asset" : {
        "generator" : "Khronos glTF Blender I/O v0.9.36",
        "version" : "2.0"
    },
    "scene" : 0,
    "scenes" : [
        {
            "name" : "Scene",
            "nodes" : [
                0,
                1,
                2
            ]
        }
    ],
    "nodes" : [
        {
            "mesh" : 0,
            "name" : "Hull",
            "rotation" : [
                0.7071068286895752,
                0,
                0,
                0.7071067094802856
            ],
            "translation" : [
                0,
                0.833045244216919,
                0.2229553759098053
            ]
        },
        {
            "mesh" : 1,
            "name" : "Wheels_Right",
            "rotation" : [
                0,
                0.7071068286895752,
                -0.7071067094802856,
                -1.1520232590100932e-07
            ],
            "translation" : [
                0,
                0.02182766981422901,
                0.22295525670051575
            ]
        },
        {
            "mesh" : 2,
            "name" : "Wheels_Left",
            "rotation" : [
                0,
                0.7071068286895752,
                -0.7071067094802856,
                -1.1520232590100932e-07
            ],
            "translation" : [
                0,
                0.02182766981422901,
                0.22295525670051575
            ]
        }
    ],
    "materials" : [
        {
            "doubleSided" : true,
            "name" : "Material_1.001",
            "normalTexture" : {
                "index" : 0,
                "texCoord" : 0
            },
            "pbrMetallicRoughness" : {
                "baseColorTexture" : {
                    "index" : 1,
                    "texCoord" : 0
                },
                "metallicFactor" : 0.019999999552965164,
                "roughnessFactor" : 1
            }
        }
    ],
    "meshes" : [
        {
            "name" : "Object_1.004",
            "primitives" : [
                {
                    "attributes" : {
                        "POSITION" : 0,
                        "NORMAL" : 1,
                        "TEXCOORD_0" : 2
                    },
                    "indices" : 3,
                    "material" : 0
                }
            ]
        },
        {
            "name" : "Object_4.001",
            "primitives" : [
                {
                    "attributes" : {
                        "POSITION" : 4,
                        "NORMAL" : 5,
                        "TEXCOORD_0" : 6
                    },
                    "indices" : 7,
                    "material" : 0
                }
            ]
        },
        {
            "name" : "Object_3.001",
            "primitives" : [
                {
                    "attributes" : {
                        "POSITION" : 8,
                        "NORMAL" : 9,
                        "TEXCOORD_0" : 10
                    },
                    "indices" : 11,
                    "material" : 0
                }
            ]
        }
    ],
    "textures" : [
        {
            "source" : 0
        },
        {
            "source" : 1
        }
    ],
    "images" : [
        {
            "mimeType" : "image/png",
            "name" : "M4_Sherman_NM",
            "uri" : "M4_Sherman_NM.png"
        },
        {
            "mimeType" : "image/png",
            "name" : "M4_Sherman_dds",
            "uri" : "M4_Sherman_dds.png"
        }
    ],
    "accessors" : [
        {
            "bufferView" : 0,
            "componentType" : 5126,
            "count" : 11081,
            "max" : [
                1.303425669670105,
                3.0559844970703125,
                0.4312729835510254
            ],
            "min" : [
                -1.3016269207000732,
                -2.6726131439208984,
                -1.1121987104415894
            ],
            "type" : "VEC3"
        },
        {
            "bufferView" : 1,
            "componentType" : 5126,
            "count" : 11081,
            "type" : "VEC3"
        },
        {
            "bufferView" : 2,
            "componentType" : 5126,
            "count" : 11081,
            "type" : "VEC2"
        },
        {
            "bufferView" : 3,
            "componentType" : 5123,
            "count" : 11199,
            "type" : "SCALAR"
        },
        {
            "bufferView" : 4,
            "componentType" : 5126,
            "count" : 6278,
            "max" : [
                -0.6898306012153625,
                2.7392406463623047,
                -0.05975224822759628
            ],
            "min" : [
                -1.2649948596954346,
                -2.7801945209503174,
                -1.0666157007217407
            ],
            "type" : "VEC3"
        },
        {
            "bufferView" : 5,
            "componentType" : 5126,
            "count" : 6278,
            "type" : "VEC3"
        },
        {
            "bufferView" : 6,
            "componentType" : 5126,
            "count" : 6278,
            "type" : "VEC2"
        },
        {
            "bufferView" : 7,
            "componentType" : 5123,
            "count" : 6432,
            "type" : "SCALAR"
        },
        {
            "bufferView" : 8,
            "componentType" : 5126,
            "count" : 6285,
            "max" : [
                1.2671037912368774,
                2.7392406463623047,
                -0.059752244502305984
            ],
            "min" : [
                0.6915251612663269,
                -2.7801945209503174,
                -1.0666157007217407
            ],
            "type" : "VEC3"
        },
        {
            "bufferView" : 9,
            "componentType" : 5126,
            "count" : 6285,
            "type" : "VEC3"
        },
        {
            "bufferView" : 10,
            "componentType" : 5126,
            "count" : 6285,
            "type" : "VEC2"
        },
        {
            "bufferView" : 11,
            "componentType" : 5123,
            "count" : 6432,
            "type" : "SCALAR"
        }
    ],
    "bufferViews" : [
        {
            "buffer" : 0,
            "byteLength" : 132972,
            "byteOffset" : 0
        },
        {
            "buffer" : 0,
            "byteLength" : 132972,
            "byteOffset" : 132972
        },
        {
            "buffer" : 0,
            "byteLength" : 88648,
            "byteOffset" : 265944
        },
        {
            "buffer" : 0,
            "byteLength" : 22398,
            "byteOffset" : 354592
        },
        {
            "buffer" : 0,
            "byteLength" : 75336,
            "byteOffset" : 376992
        },
        {
            "buffer" : 0,
            "byteLength" : 75336,
            "byteOffset" : 452328
        },
        {
            "buffer" : 0,
            "byteLength" : 50224,
            "byteOffset" : 527664
        },
        {
            "buffer" : 0,
            "byteLength" : 12864,
            "byteOffset" : 577888
        },
        {
            "buffer" : 0,
            "byteLength" : 75420,
            "byteOffset" : 590752
        },
        {
            "buffer" : 0,
            "byteLength" : 75420,
            "byteOffset" : 666172
        },
        {
            "buffer" : 0,
            "byteLength" : 50280,
            "byteOffset" : 741592
        },
        {
            "buffer" : 0,
            "byteLength" : 12864,
            "byteOffset" : 791872
        }
    ],
    "buffers" : [
        {
            "byteLength" : 804736,
            "uri" : "M4_Body.bin"
        }
    ]
}
