{
    "asset" : {
        "generator" : "Khronos glTF Blender I/O v0.9.36",
        "version" : "2.0"
    },
    "scene" : 0,
    "scenes" : [
        {
            "name" : "Scene",
            "nodes" : [
                0
            ]
        }
    ],
    "nodes" : [
        {
            "mesh" : 0,
            "name" : "Turret",
            "rotation" : [
                0,
                0,
                0,
                -1
            ],
            "translation" : [
                0,
                0.00011515803635120392,
                0.8153695464134216
            ]
        }
    ],
    "materials" : [
        {
            "doubleSided" : true,
            "name" : "Material_1.004",
            "normalTexture" : {
                "index" : 0,
                "texCoord" : 0
            },
            "pbrMetallicRoughness" : {
                "baseColorTexture" : {
                    "index" : 1,
                    "texCoord" : 0
                },
                "metallicFactor" : 0.019999999552965164,
                "roughnessFactor" : 1
            }
        }
    ],
    "meshes" : [
        {
            "name" : "Object_1.002",
            "primitives" : [
                {
                    "attributes" : {
                        "POSITION" : 0,
                        "NORMAL" : 1,
                        "TEXCOORD_0" : 2
                    },
                    "indices" : 3,
                    "material" : 0
                }
            ]
        }
    ],
    "textures" : [
        {
            "source" : 0
        },
        {
            "source" : 1
        }
    ],
    "images" : [
        {
            "mimeType" : "image/png",
            "name" : "M4_Sherman_NM",
            "uri" : "M4_Sherman_NM.png"
        },
        {
            "mimeType" : "image/png",
            "name" : "M4_Sherman_dds",
            "uri" : "M4_Sherman_dds.png"
        }
    ],
    "accessors" : [
        {
            "bufferView" : 0,
            "componentType" : 5126,
            "count" : 2362,
            "max" : [
                1.0101648569107056,
                2.298617362976074,
                1.5528011322021484
            ],
            "min" : [
                -1.0271884202957153,
                -0.0008042046101763844,
                -1.002503752708435
            ],
            "type" : "VEC3"
        },
        {
            "bufferView" : 1,
            "componentType" : 5126,
            "count" : 2362,
            "type" : "VEC3"
        },
        {
            "bufferView" : 2,
            "componentType" : 5126,
            "count" : 2362,
            "type" : "VEC2"
        },
        {
            "bufferView" : 3,
            "componentType" : 5123,
            "count" : 2397,
            "type" : "SCALAR"
        }
    ],
    "bufferViews" : [
        {
            "buffer" : 0,
            "byteLength" : 28344,
            "byteOffset" : 0
        },
        {
            "buffer" : 0,
            "byteLength" : 28344,
            "byteOffset" : 28344
        },
        {
            "buffer" : 0,
            "byteLength" : 18896,
            "byteOffset" : 56688
        },
        {
            "buffer" : 0,
            "byteLength" : 4794,
            "byteOffset" : 75584
        }
    ],
    "buffers" : [
        {
            "byteLength" : 80380,
            "uri" : "M4_Turret.bin"
        }
    ]
}
